<mxfile host="app.diagrams.net" agent="Mozilla/5.0 (Windows NT 10.0; Win64; x64) AppleWebKit/537.36 (KHTML, like Gecko) Chrome/132.0.0.0 YaBrowser/25.2.0.0 Safari/537.36" version="26.1.1">
  <diagram name="Страница — 1" id="iBm_NEDyZ72VBCiBq8vL">
    <mxGraphModel dx="774" dy="377" grid="1" gridSize="10" guides="1" tooltips="1" connect="1" arrows="1" fold="1" page="1" pageScale="1" pageWidth="827" pageHeight="1169" math="0" shadow="0">
      <root>
        <mxCell id="0" />
        <mxCell id="1" parent="0" />
        <mxCell id="gScfbcSsDltnCg3z5dIy-8" value="Эксперимент" style="rounded=1;arcSize=10;whiteSpace=wrap;html=1;align=center;" vertex="1" parent="1">
          <mxGeometry x="360" y="390" width="130" height="50" as="geometry" />
        </mxCell>
        <mxCell id="gScfbcSsDltnCg3z5dIy-9" value="Материалы" style="rounded=1;arcSize=10;whiteSpace=wrap;html=1;align=center;" vertex="1" parent="1">
          <mxGeometry x="360" y="290" width="130" height="50" as="geometry" />
        </mxCell>
        <mxCell id="gScfbcSsDltnCg3z5dIy-10" value="Проекты" style="rounded=1;arcSize=10;whiteSpace=wrap;html=1;align=center;" vertex="1" parent="1">
          <mxGeometry x="180" y="390" width="130" height="50" as="geometry" />
        </mxCell>
        <mxCell id="gScfbcSsDltnCg3z5dIy-12" value="Сотрудники" style="rounded=1;arcSize=10;whiteSpace=wrap;html=1;align=center;" vertex="1" parent="1">
          <mxGeometry x="180" y="490" width="130" height="50" as="geometry" />
        </mxCell>
        <mxCell id="gScfbcSsDltnCg3z5dIy-13" value="Отчеты" style="rounded=1;arcSize=10;whiteSpace=wrap;html=1;align=center;direction=west;" vertex="1" parent="1">
          <mxGeometry x="540" y="390" width="130" height="50" as="geometry" />
        </mxCell>
        <mxCell id="gScfbcSsDltnCg3z5dIy-14" style="edgeStyle=orthogonalEdgeStyle;rounded=0;orthogonalLoop=1;jettySize=auto;html=1;exitX=0.5;exitY=0;exitDx=0;exitDy=0;" edge="1" parent="1" source="gScfbcSsDltnCg3z5dIy-13" target="gScfbcSsDltnCg3z5dIy-13">
          <mxGeometry relative="1" as="geometry" />
        </mxCell>
        <mxCell id="gScfbcSsDltnCg3z5dIy-15" value="Оборудование" style="rounded=1;arcSize=10;whiteSpace=wrap;html=1;align=center;" vertex="1" parent="1">
          <mxGeometry x="360" y="490" width="130" height="50" as="geometry" />
        </mxCell>
        <mxCell id="gScfbcSsDltnCg3z5dIy-18" value="" style="endArrow=ERoneToMany;html=1;rounded=0;exitX=0.5;exitY=1;exitDx=0;exitDy=0;entryX=0.5;entryY=0;entryDx=0;entryDy=0;startArrow=ERzeroToMany;startFill=0;endFill=0;" edge="1" parent="1" source="gScfbcSsDltnCg3z5dIy-10" target="gScfbcSsDltnCg3z5dIy-12">
          <mxGeometry relative="1" as="geometry">
            <mxPoint x="330" y="410" as="sourcePoint" />
            <mxPoint x="490" y="410" as="targetPoint" />
          </mxGeometry>
        </mxCell>
        <mxCell id="gScfbcSsDltnCg3z5dIy-19" value="" style="endArrow=ERoneToMany;html=1;rounded=0;exitX=1;exitY=0.5;exitDx=0;exitDy=0;startArrow=ERmandOne;startFill=0;endFill=0;" edge="1" parent="1" source="gScfbcSsDltnCg3z5dIy-10" target="gScfbcSsDltnCg3z5dIy-8">
          <mxGeometry relative="1" as="geometry">
            <mxPoint x="330" y="410" as="sourcePoint" />
            <mxPoint x="490" y="410" as="targetPoint" />
          </mxGeometry>
        </mxCell>
        <mxCell id="gScfbcSsDltnCg3z5dIy-20" value="" style="endArrow=ERzeroToMany;html=1;rounded=0;exitX=0.5;exitY=0;exitDx=0;exitDy=0;entryX=0.5;entryY=1;entryDx=0;entryDy=0;startArrow=ERzeroToMany;startFill=0;endFill=0;" edge="1" parent="1" source="gScfbcSsDltnCg3z5dIy-8" target="gScfbcSsDltnCg3z5dIy-9">
          <mxGeometry relative="1" as="geometry">
            <mxPoint x="330" y="410" as="sourcePoint" />
            <mxPoint x="490" y="410" as="targetPoint" />
          </mxGeometry>
        </mxCell>
        <mxCell id="gScfbcSsDltnCg3z5dIy-21" value="" style="endArrow=ERoneToMany;html=1;rounded=0;exitX=1;exitY=0.5;exitDx=0;exitDy=0;entryX=1;entryY=0.5;entryDx=0;entryDy=0;endFill=0;startArrow=ERmandOne;startFill=0;" edge="1" parent="1" source="gScfbcSsDltnCg3z5dIy-8" target="gScfbcSsDltnCg3z5dIy-13">
          <mxGeometry relative="1" as="geometry">
            <mxPoint x="330" y="410" as="sourcePoint" />
            <mxPoint x="490" y="410" as="targetPoint" />
          </mxGeometry>
        </mxCell>
        <mxCell id="gScfbcSsDltnCg3z5dIy-22" value="" style="endArrow=ERoneToMany;html=1;rounded=0;exitX=0.5;exitY=1;exitDx=0;exitDy=0;entryX=0.5;entryY=0;entryDx=0;entryDy=0;startArrow=ERzeroToOne;startFill=0;endFill=0;" edge="1" parent="1" source="gScfbcSsDltnCg3z5dIy-8" target="gScfbcSsDltnCg3z5dIy-15">
          <mxGeometry relative="1" as="geometry">
            <mxPoint x="330" y="410" as="sourcePoint" />
            <mxPoint x="490" y="410" as="targetPoint" />
          </mxGeometry>
        </mxCell>
      </root>
    </mxGraphModel>
  </diagram>
</mxfile>
